{"title":"Clone Wars S03E07 (ENG+NL SUBS) AVC AC3 RHoek 2Lions-Team","uid":5913192,"size":587209529,"categoryP":"video","categoryS":"tv_shows","magnet":"?xt=urn:btih:37c3b66f5adc41d952ce7390f68c1d790f414e85&amp;dn=Clone+Wars+S03E07+%28ENG%2BNL+SUBS%29+AVC+AC3+RHoek+2Lions-Team&amp;tr=udp%3A%2F%2Ftracker.openbittorrent.com%3A80&amp;tr=udp%3A%2F%2Fopen.demonii.com%3A1337&amp;tr=udp%3A%2F%2Ftracker.coppersurfer.tk%3A6969&amp;tr=udp%3A%2F%2Fexodus.desync.com%3A6969","seeders":0,"leechers":1,"uploader":"RHoek-2lions","files":-1,"time":1288126556,"description":"FOR ENGLISH, PLEASE SCROLL DOWN!\n\n[IMG]http://i896.photobucket.com/albums/ac163/rhoek/STRWRSCLNWRS/vlcsnap-2010-10-26-20h15m23s118.png[/IMG]\n[IMG]http://i896.photobucket.com/albums/ac163/rhoek/STRWRSCLNWRS/vlcsnap-2010-10-26-20h16m49s211.png[/IMG]\n~~~~~~~~~~~~~~~~~~~~~~~~~~~~~~~~~~~~~~~~~~~~~~~~~~~~~~~~~\nStar Wars - The Clone Wars (2008) - Verenigde Staten - Afleveringen duren ongeveer 22 minuten - GecreÃƒÂ«erd door George Lucas - Met stemmen van o.a. Tom Kane als Narrator, Dee Bradley Baker als Clone Troopers, Matt Lanter als Anakin Skywalker,  James Arnold Taylor als Obi-Wan Kenobi, Matthew Wood als Battle Droids, Ashley Eckstein als Ahsoka Tano &amp; Corey Burton als Count Dooku.\n~~~~~~~~~~~~~~~~~~~~~~~~~~~~~~~~~~~~~~~~~~~~~~~~~~~~~~~~~\nVERHAALLIJN:\nÃ‚Â¯Ã‚Â¯Ã‚Â¯Ã‚Â¯Ã‚Â¯Ã‚Â¯Ã‚Â¯Ã‚Â¯Ã‚Â¯Ã‚Â¯Ã‚Â¯Ã‚Â¯\nTerwijl het heelal geteisterd wordt door de Clone Wars, trachten de Jedi-ridders de orde te handhaven en de vrede te herstellen. Steeds meer stelsels vallen ten prooi aan de duistere kant en de Galactische Republiek dreigt te bezwijken onder de druk van de Separartisten en hun onuitroeibare droÃƒÂ¯deleger..\n~~~~~~~~~~~~~~~~~~~~~~~~~~~~~~~~~~~~~~~~~~~~~~~~~~~~~~~~~\nOndertitelingen: Engels door onbekend &amp; Nederlands door r3po van bierdopje. Werelds zoals gewoon!\nMenu: Nee\nCovers: Nee.\nGenre : Animatie | Sci-Fi\n\nIMDb: http://www.imdb.com/title/tt0458290/\nOfficiÃƒÂ«le website: http://www.starwars.com/theclonewars/\n\n~~~~~~~~~~~~~~~~~~~~~~~~~~~~~~~~~~~~~~~~~~~~~~~~~~~~~~~~~\nStar Wars - The Clone Wars (2008) - United States - Episodes lasts about 22 minutes - Created by George Lucas - With voices of Tom Kane as Narrator, Dee Bradley Baker as Clone Troopers, Matt Lanter as Anakin Skywalker,  James Arnold Taylor as Obi-Wan Kenobi, Matthew Wood as Battle Droids, Ashley Eckstein as Ahsoka Tano &amp; Corey Burton as Count Dooku.\n\n~~~~~~~~~~~~~~~~~~~~~~~~~~~~~~~~~~~~~~~~~~~~~~~~~~~~~~~~~\nPLOT:\nÃ‚Â¯Ã‚Â¯Ã‚Â¯Ã‚Â¯Ã‚Â¯\nPadmÃƒÂ©, on a diplomatic mission to Mandalore, guarantees the pacifist planet the Republic's full protection, but she and Duchess Satine soon find something sinister lurking beneath the planet's serene facade. Moogan smugglers have been sneaking in supplies, including bottled tea destined for the Mandalorian schools. To increase their profits, they have been diluting the tea with a hazardous chemical. \n\n~~~~~~~~~~~~~~~~~~~~~~~~~~~~~~~~~~~~~~~~~~~~~~~~~~~~~~~~~\nSubtitles: English by 'unknown' and Dutch by r3po from bierdopje. Thanks again man!\nMenu: No\nCovers: No.\nGenre : Animation | Sci-Fi\n\nIMDb: http://www.imdb.com/title/tt0458290/\nOfficial website: http://www.starwars.com/theclonewars/\n\n~~~~~~~~~~~~~~~~~~~~~~~~~~~~~~~~~~~~~~~~~~~~~~~~~~~~~~~~~\nVIDEO AND AUDIO INFORMATION\nÃ‚Â¯Ã‚Â¯Ã‚Â¯Ã‚Â¯Ã‚Â¯Ã‚Â¯Ã‚Â¯Ã‚Â¯Ã‚Â¯Ã‚Â¯Ã‚Â¯Ã‚Â¯Ã‚Â¯Ã‚Â¯Ã‚Â¯Ã‚Â¯Ã‚Â¯Ã‚Â¯Ã‚Â¯Ã‚Â¯Ã‚Â¯Ã‚Â¯Ã‚Â¯Ã‚Â¯Ã‚Â¯Ã‚Â¯Ã‚Â¯Ã‚Â¯Ã‚Â¯Ã‚Â¯\nFormat                           : Matroska\nFile size                        : 560 MiB\nDuration                         : 22mn 1s\nOverall bit rate                 : 3 555 Kbps\nWriting application              : x264.exe\nWriting library                  : mkv2rls x264-tv version built on 2010 jul 11\n\nVideo\nID                               : 1\nFormat                           : AVC\nFormat/Info                      : Advanced Video Codec\nFormat profile                   : &lt;a class=&quot;__cf_email__&quot; href=&quot;/cdn-cgi/l/email-protection&quot; data-cfemail=&quot;4901202e2109057a6778&quot;&gt;[email&amp;#160;protected]&lt;/a&gt;&lt;script cf-hash='f9e31' type=&quot;text/javascript&quot;&gt;\n/* &lt;![CDATA[ */!function(){try{var t=&quot;currentScript&quot;in document?document.currentScript:function(){for(var t=document.getElementsByTagName(&quot;script&quot;),e=t.length;e--;)if(t[e].getAttribute(&quot;cf-hash&quot;))return t[e]}();if(t&amp;&amp;t.previousSibling){var e,r,n,i,c=t.previousSibling,a=c.getAttribute(&quot;data-cfemail&quot;);if(a){for(e=&quot;&quot;,r=parseInt(a.substr(0,2),16),n=2;a.length-n;n+=2)i=parseInt(a.substr(n,2),16)^r,e+=String.fromCharCode(i);e=document.createTextNode(e),c.parentNode.replaceChild(e,c)}}}catch(u){}}();/* ]]&gt; */&lt;/script&gt;\nFormat settings, CABAC           : Yes\nFormat settings, ReFrames        : 3 frames\nMuxing mode                      : Container profile=&lt;a class=&quot;__cf_email__&quot; href=&quot;/cdn-cgi/l/email-protection&quot; data-cfemail=&quot;23764d484d4c544d63100d12&quot;&gt;[email&amp;#160;protected]&lt;/a&gt;&lt;script cf-hash='f9e31' type=&quot;text/javascript&quot;&gt;\n/* &lt;![CDATA[ */!function(){try{var t=&quot;currentScript&quot;in document?document.currentScript:function(){for(var t=document.getElementsByTagName(&quot;script&quot;),e=t.length;e--;)if(t[e].getAttribute(&quot;cf-hash&quot;))return t[e]}();if(t&amp;&amp;t.previousSibling){var e,r,n,i,c=t.previousSibling,a=c.getAttribute(&quot;data-cfemail&quot;);if(a){for(e=&quot;&quot;,r=parseInt(a.substr(0,2),16),n=2;a.length-n;n+=2)i=parseInt(a.substr(n,2),16)^r,e+=String.fromCharCode(i);e=document.createTextNode(e),c.parentNode.replaceChild(e,c)}}}catch(u){}}();/* ]]&gt; */&lt;/script&gt;\nCodec ID                         : V_MPEG4/ISO/AVC\nDuration                         : 22mn 0s\nBit rate                         : 3 098 Kbps\nWidth                            : 1 280 pixels\nHeight                           : 720 pixels\nDisplay aspect ratio             : 16:9\nFrame rate                       : 23.976 fps\nColor space                      : YUV\nChroma subsampling               : 4:2:0\nBit depth                        : 8 bits\nScan type                        : Progressive\nBits/(Pixel*Frame)               : 0.140\nStream size                      : 478 MiB (85%)\nWriting library                  : x264 core 88 r1471M 1144615\nEncoding settings                : cabac=1 / ref=3 / deblock=1:0:0 / analyse=0x3:0x113 / me=hex / subme=6 / psy=1 / psy_rd=1.00:0.00 / mixed_ref=0 / me_range=16 / chroma_me=1 / trellis=1 / 8x8dct=1 / cqm=0 / deadzone=21,11 / fast_pskip=1 / chroma_qp_offset=-2 / threads=36 / sliced_threads=0 / nr=0 / decimate=1 / mbaff=0 / constrained_intra=0 / bframes=6 / b_pyramid=1 / b_adapt=2 / b_bias=0 / direct=1 / wpredb=1 / wpredp=0 / keyint=240 / keyint_min=24 / scenecut=40 / intra_refresh=0 / rc_lookahead=40 / rc=2pass / mbtree=1 / bitrate=3098 / ratetol=1.0 / qcomp=0.60 / qpmin=10 / qpmax=51 / qpstep=4 / cplxblur=20.0 / qblur=0.5 / ip_ratio=1.40 / aq=1:1.00\nLanguage                         : English\n\nAudio\nID                               : 2\nFormat                           : AC-3\nFormat/Info                      : Audio Coding 3\nMode extension                   : CM (complete main)\nCodec ID                         : A_AC3\nDuration                         : 22mn 1s\nBit rate mode                    : Constant\nBit rate                         : 448 Kbps\nChannel(s)                       : 6 channels\nChannel positions                : Front: L C R, Side: L R, LFE\nSampling rate                    : 48.0 KHz\nBit depth                        : 16 bits\nStream size                      : 70.5 MiB (13%)\nTitle                            : English\nLanguage                         : English\n\n*****************************************\nBrought to you by 2Lions Team\n******************************************","torrent":{"xt":"urn:btih:37c3b66f5adc41d952ce7390f68c1d790f414e85","amp;dn":"Clone+Wars+S03E07+%28ENG%2BNL+SUBS%29+AVC+AC3+RHoek+2Lions-Team","amp;tr":["udp%3A%2F%2Ftracker.openbittorrent.com%3A80","udp%3A%2F%2Fopen.demonii.com%3A1337","udp%3A%2F%2Ftracker.coppersurfer.tk%3A6969","udp%3A%2F%2Fexodus.desync.com%3A6969"],"infoHash":"37c3b66f5adc41d952ce7390f68c1d790f414e85","infoHashBuffer":{"type":"Buffer","data":[55,195,182,111,90,220,65,217,82,206,115,144,246,140,29,121,15,65,78,133]},"announce":[],"urlList":[]}}